<?xml version="1.0" encoding="UTF-8"?>
<svg version="1.1" xmlns="http://www.w3.org/2000/svg" width="180" height="180">
<path d="M0 0 C59.4 0 118.8 0 180 0 C180 59.4 180 118.8 180 180 C120.6 180 61.2 180 0 180 C0 120.6 0 61.2 0 0 Z " fill="#2E7348" transform="translate(0,0)"/>
<path d="M0 0 C40.59 0 81.18 0 123 0 C123 27.06 123 54.12 123 82 C82.41 82 41.82 82 0 82 C0 54.94 0 27.88 0 0 Z " fill="#E6B544" transform="translate(28,49)"/>
<path d="M0 0 C0.77338431 0.00092179 1.54676863 0.00184359 2.34358883 0.00279331 C3.22844967 0.00141865 4.11331051 0.00004398 5.02498531 -0.00137234 C6.00321758 0.00222294 6.98144985 0.00581821 7.98932552 0.00952244 C9.01359646 0.00937641 10.03786739 0.00923038 11.09317684 0.00907993 C14.49665055 0.00977955 17.9000703 0.0175742 21.30353451 0.02539158 C23.65623094 0.02725559 26.00892776 0.02867957 28.36162472 0.0296793 C34.56769531 0.03350584 40.77374266 0.04333728 46.97980404 0.05438328 C53.30711204 0.06459448 59.63442378 0.06917629 65.96173763 0.0742197 C78.38687807 0.08495942 90.81200124 0.10203747 103.23712826 0.12304783 C103.23712826 4.41304783 103.23712826 8.70304783 103.23712826 13.12304783 C81.45712826 13.12304783 59.67712826 13.12304783 37.23712826 13.12304783 C37.23712826 11.80304783 37.23712826 10.48304783 37.23712826 9.12304783 C35.25712826 9.12304783 33.27712826 9.12304783 31.23712826 9.12304783 C31.23712826 10.44304783 31.23712826 11.76304783 31.23712826 13.12304783 C20.01712826 13.12304783 8.79712826 13.12304783 -2.76287174 13.12304783 C-2.76287174 0.19284748 -2.76287174 0.19284748 0 0 Z " fill="#AD8A35" transform="translate(45.762871742248535,50.876952171325684)"/>
<path d="M0 0 C7.26 0 14.52 0 22 0 C22 1.65 22 3.3 22 5 C32.89 5 43.78 5 55 5 C55 3.35 55 1.7 55 0 C57.64 0 60.28 0 63 0 C63.495 3.465 63.495 3.465 64 7 C64.66 7 65.32 7 66 7 C65.625 8.9375 65.625 8.9375 65 11 C64.34 11.33 63.68 11.66 63 12 C62.505 10.515 62.505 10.515 62 9 C61.01 9.33 60.02 9.66 59 10 C58.67 11.32 58.34 12.64 58 14 C38.86 13.67 19.72 13.34 0 13 C0 11.02 0 9.04 0 7 C7.26 7 14.52 7 22 7 C22 8.65 22 10.3 22 12 C27.61 12 33.22 12 39 12 C39 10.35 39 8.7 39 7 C45.27 7 51.54 7 58 7 C38.86 6.67 19.72 6.34 0 6 C0 4.02 0 2.04 0 0 Z " fill="#EDBA46" transform="translate(69,80)"/>
<path d="M0 0 C27.72 0 55.44 0 84 0 C84 0.33 84 0.66 84 1 C81.69 1 79.38 1 77 1 C77 2.65 77 4.3 77 6 C64.79 6 52.58 6 40 6 C40 4.35 40 2.7 40 1 C38.02 1 36.04 1 34 1 C34 2.65 34 4.3 34 6 C22.78 6 11.56 6 0 6 C0 4.02 0 2.04 0 0 Z " fill="#53421A" transform="translate(43,100)"/>
<path d="M0 0 C25.08 0 50.16 0 76 0 C76 1.98 76 3.96 76 6 C64.12 6 52.24 6 40 6 C40 4.35 40 2.7 40 1 C38.02 1 36.04 1 34 1 C34 2.65 34 4.3 34 6 C22.78 6 11.56 6 0 6 C0 4.02 0 2.04 0 0 Z " fill="#524219" transform="translate(43,93)"/>
<path d="M0 0 C34.65 0 69.3 0 105 0 C105 1.98 105 3.96 105 6 C100.71 6 96.42 6 92 6 C91.01 4.02 91.01 4.02 90 2 C81.75 2 73.5 2 65 2 C64.67 3.32 64.34 4.64 64 6 C58.39 6 52.78 6 47 6 C47 4.35 47 2.7 47 1 C39.74 1 32.48 1 25 1 C25 2.65 25 4.3 25 6 C19.39 6 13.78 6 8 6 C7.67 4.68 7.34 3.36 7 2 C4.69 1.67 2.38 1.34 0 1 C0 0.67 0 0.34 0 0 Z " fill="#806627" transform="translate(44,65)"/>
<path d="M0 0 C26.4 0 52.8 0 80 0 C80 1.98 80 3.96 80 6 C69.11 6 58.22 6 47 6 C47 4.35 47 2.7 47 1 C39.74 1 32.48 1 25 1 C25 2.65 25 4.3 25 6 C19.39 6 13.78 6 8 6 C7.67 4.68 7.34 3.36 7 2 C4.69 1.67 2.38 1.34 0 1 C0 0.67 0 0.34 0 0 Z " fill="#765F25" transform="translate(44,79)"/>
<path d="M0 0 C26.4 0 52.8 0 80 0 C80 1.98 80 3.96 80 6 C69.11 6 58.22 6 47 6 C47 4.35 47 2.7 47 1 C39.74 1 32.48 1 25 1 C25 2.65 25 4.3 25 6 C19.39 6 13.78 6 8 6 C7.67 4.68 7.34 3.36 7 2 C4.69 1.67 2.38 1.34 0 1 C0 0.67 0 0.34 0 0 Z " fill="#786224" transform="translate(44,72)"/>
<path d="M0 0 C21.78 0 43.56 0 66 0 C66 1.65 66 3.3 66 5 C44.22 5 22.44 5 0 5 C0 3.35 0 1.7 0 0 Z " fill="#070602" transform="translate(83,59)"/>
<path d="M0 0 C21.78 0 43.56 0 66 0 C66 1.65 66 3.3 66 5 C44.22 5 22.44 5 0 5 C0 3.35 0 1.7 0 0 Z " fill="#060502" transform="translate(83,52)"/>
<path d="M0 0 C7.26 0 14.52 0 22 0 C22 1.65 22 3.3 22 5 C27.61 5 33.22 5 39 5 C39.33 3.35 39.66 1.7 40 0 C44.12486838 -0.08676908 48.24950384 -0.14031295 52.375 -0.1875 C53.550625 -0.21263672 54.72625 -0.23777344 55.9375 -0.26367188 C57.61972656 -0.27817383 57.61972656 -0.27817383 59.3359375 -0.29296875 C60.37282715 -0.3086792 61.4097168 -0.32438965 62.47802734 -0.34057617 C63.72640381 -0.17199097 63.72640381 -0.17199097 65 0 C67 3 67 3 67 6 C44.56 6 22.12 6 -1 6 C-0.67 4.02 -0.34 2.04 0 0 Z " fill="#EDBB46" transform="translate(69,66)"/>
<path d="M0 0 C8.25 0 16.5 0 25 0 C20.60405194 2.19797403 19.00732024 2.10073202 14.25 1.625 C13.07953125 1.51414062 11.9090625 1.40328125 10.703125 1.2890625 C9.81109375 1.19367188 8.9190625 1.09828125 8 1 C8 1.99 8 2.98 8 4 C8.66 4.33 9.32 4.66 10 5 C9.67 5.66 9.34 6.32 9 7 C9.99 7 10.98 7 12 7 C12 5.68 12 4.36 12 3 C12.66 3.33 13.32 3.66 14 4 C13.67 4.99 13.34 5.98 13 7 C14.65 7 16.3 7 18 7 C17.67 7.66 17.34 8.32 17 9 C14.36 8.67 11.72 8.34 9 8 C9.45375 8.7425 9.9075 9.485 10.375 10.25 C11.68640796 12.46930578 12.88280803 14.67967822 14 17 C14.33 15.35 14.66 13.7 15 12 C18.13349732 10.95550089 18.98968256 11.06576355 22 12 C22 12.66 22 13.32 22 14 C22.99 14.33 23.98 14.66 25 15 C25 18 25 21 25 24 C25.020625 24.845625 25.04125 25.69125 25.0625 26.5625 C25 29 25 29 24 30 C22.33382885 30.04063832 20.66611905 30.042721 19 30 C20.32 29.01 21.64 28.02 23 27 C22.505 24.525 22.505 24.525 22 22 C20.35 22.33 18.7 22.66 17 23 C17.33 22.01 17.66 21.02 18 20 C19.65 20 21.3 20 23 20 C21.88145414 16.27385847 21.88145414 16.27385847 19 14 C19.33 14.99 19.66 15.98 20 17 C17.03 18.65 14.06 20.3 11 22 C12.32 22.33 13.64 22.66 15 23 C15.33 25.31 15.66 27.62 16 30 C14.02 30 12.04 30 10 30 C10 28.35 10 26.7 10 25 C7.36 24.67 4.72 24.34 2 24 C2 23.34 2 22.68 2 22 C0.02 22 -1.96 22 -4 22 C-4 23.65 -4 25.3 -4 27 C-4.33 27 -4.66 27 -5 27 C-5 25.02 -5 23.04 -5 21 C-2.36 21 0.28 21 3 21 C3.33 20.01 3.66 19.02 4 18 C4.66 18 5.32 18 6 18 C6.33 17.34 6.66 16.68 7 16 C7.66 16 8.32 16 9 16 C9 16.99 9 17.98 9 19 C9.66 17.68 10.32 16.36 11 15 C10.34 15 9.68 15 9 15 C8.67 12.69 8.34 10.38 8 8 C7.05125 8.20625 6.1025 8.4125 5.125 8.625 C4.09375 8.74875 3.0625 8.8725 2 9 C1.34 8.34 0.68 7.68 0 7 C0.66 7 1.32 7 2 7 C2.33 5.68 2.66 4.36 3 3 C3 3.66 3 4.32 3 5 C4.32 5 5.64 5 7 5 C6.10664203 2.64214682 6.10664203 2.64214682 2.9375 1.875 C1.968125 1.58625 0.99875 1.2975 0 1 C0 0.67 0 0.34 0 0 Z " fill="#806A29" transform="translate(124,72)"/>
<path d="M0 0 C-0.33 1.32 -0.66 2.64 -1 4 C-0.38739822 3.67468292 0.22520355 3.34936584 0.85636902 3.01419067 C5.3533307 1.5633917 9.60145038 1.73824782 14.2980957 1.77294922 C15.33270432 1.77265717 16.36731293 1.77236511 17.43327332 1.77206421 C20.84752841 1.77345576 24.26156435 1.78900896 27.67578125 1.8046875 C30.04518006 1.80841825 32.41458042 1.81126493 34.78398132 1.81326294 C41.01632964 1.82089452 47.24858455 1.84053904 53.480896 1.8626709 C59.84206885 1.88313949 66.20325682 1.89226683 72.56445312 1.90234375 C85.04300976 1.92378528 97.52149711 1.9579156 110 2 C110 2.66 110 3.32 110 4 C75.35 4 40.7 4 5 4 C5.66 5.32 6.32 6.64 7 8 C8.32 7.67 9.64 7.34 11 7 C10.67 8.65 10.34 10.3 10 12 C7.69 11.67 5.38 11.34 3 11 C3 10.01 3 9.02 3 8 C1.68 8 0.36 8 -1 8 C-1.66666667 6.66666667 -2.33333333 5.33333333 -3 4 C-3.66 3.67 -4.32 3.34 -5 3 C-2.25 0 -2.25 0 0 0 Z " fill="#AA8934" transform="translate(39,105)"/>
<path d="M0 0 C27.72 0 55.44 0 84 0 C82 2 82 2 80.12060547 2.13525391 C79.37697754 2.08288574 78.63334961 2.03051758 77.8671875 1.9765625 C77.06152344 1.925 76.25585938 1.8734375 75.42578125 1.8203125 C74.58402344 1.75585938 73.74226563 1.69140625 72.875 1.625 C72.02550781 1.56828125 71.17601563 1.5115625 70.30078125 1.453125 C68.1998655 1.31149023 66.09982666 1.15695674 64 1 C64 2.65 64 4.3 64 6 C58.39 6 52.78 6 47 6 C47 4.35 47 2.7 47 1 C39.74 1 32.48 1 25 1 C25 2.65 25 4.3 25 6 C19.39 6 13.78 6 8 6 C7.67 4.68 7.34 3.36 7 2 C4.69 1.67 2.38 1.34 0 1 C0 0.67 0 0.34 0 0 Z " fill="#765E25" transform="translate(44,86)"/>
<path d="M0 0 C7.26 0 14.52 0 22 0 C22 1.65 22 3.3 22 5 C32.89 5 43.78 5 55 5 C55 3.35 55 1.7 55 0 C56.98 0.33 58.96 0.66 61 1 C61.495 2.485 61.495 2.485 62 4 C60.68 4 59.36 4 58 4 C57.67 4.66 57.34 5.32 57 6 C37.86 6 18.72 6 -1 6 C-0.67 4.02 -0.34 2.04 0 0 Z " fill="#F1BD47" transform="translate(69,73)"/>
<path d="M0 0 C1.98 0 3.96 0 6 0 C6 1.65 6 3.3 6 5 C18.21 5 30.42 5 43 5 C43 3.35 43 1.7 43 0 C45.375 -0.1875 45.375 -0.1875 48 0 C48.99 1.485 48.99 1.485 50 3 C51.97516878 3.47382547 51.97516878 3.47382547 54.24609375 3.44140625 C55.08333984 3.46783203 55.92058594 3.49425781 56.78320312 3.52148438 C58.09708008 3.54178711 58.09708008 3.54178711 59.4375 3.5625 C61.16555473 3.59698446 62.89347103 3.63961741 64.62109375 3.69140625 C65.3886499 3.70373291 66.15620605 3.71605957 66.94702148 3.72875977 C69 4 69 4 72 6 C37.35 6 2.7 6 -33 6 C-33 5.67 -33 5.34 -33 5 C-22.11 5 -11.22 5 0 5 C0 3.35 0 1.7 0 0 Z " fill="#EEBC46" transform="translate(77,101)"/>
<path d="M0 0 C1.98 0 3.96 0 6 0 C6 1.65 6 3.3 6 5 C18.21 5 30.42 5 43 5 C43 3.35 43 1.7 43 0 C44.98 0 46.96 0 49 0 C49 0.66 49 1.32 49 2 C51.64 2.33 54.28 2.66 57 3 C57 3.99 57 4.98 57 6 C27.3 6 -2.4 6 -33 6 C-33 5.67 -33 5.34 -33 5 C-22.11 5 -11.22 5 0 5 C0 3.35 0 1.7 0 0 Z " fill="#EBB946" transform="translate(77,94)"/>
<path d="M0 0 C10.89 0 21.78 0 33 0 C33 1.65 33 3.3 33 5 C22.11 5 11.22 5 0 5 C0 3.35 0 1.7 0 0 Z " fill="#070602" transform="translate(44,59)"/>
<path d="M0 0 C10.89 0 21.78 0 33 0 C33 1.65 33 3.3 33 5 C22.11 5 11.22 5 0 5 C0 3.35 0 1.7 0 0 Z " fill="#060502" transform="translate(44,52)"/>
<path d="M0 0 C5.61 0 11.22 0 17 0 C16.01 0.495 16.01 0.495 15 1 C15 2.32 15 3.64 15 5 C15.66 5.33 16.32 5.66 17 6 C16.34 7.65 15.68 9.3 15 11 C12.69 11 10.38 11 8 11 C7.67 12.65 7.34 14.3 7 16 C6.01 16 5.02 16 4 16 C2.76078698 13.02588876 1.69941596 10.14737182 1 7 C2.299375 7.020625 3.59875 7.04125 4.9375 7.0625 C6.29165633 7.08399454 7.64756083 7.07148199 9 7 C9.33 6.67 9.66 6.34 10 6 C8.35 6 6.7 6 5 6 C4.67 4.68 4.34 3.36 4 2 C4 3.32 4 4.64 4 6 C3.01 6 2.02 6 1 6 C0.67 4.02 0.34 2.04 0 0 Z " fill="#AB8C37" transform="translate(132,73)"/>
<path d="M0 0 C10.23 0 20.46 0 31 0 C31 1.65 31 3.3 31 5 C20.77 5 10.54 5 0 5 C0 3.35 0 1.7 0 0 Z " fill="#090702" transform="translate(92,80)"/>
<path d="M0 0 C10.23 0 20.46 0 31 0 C31 1.65 31 3.3 31 5 C20.77 5 10.54 5 0 5 C0 3.35 0 1.7 0 0 Z " fill="#070502" transform="translate(92,73)"/>
<path d="M0 0 C11.55 0 23.1 0 35 0 C35 1.32 35 2.64 35 4 C23.45 4 11.9 4 0 4 C0 2.68 0 1.36 0 0 Z " fill="#000000" transform="translate(84,101)"/>
<path d="M0 0 C11.55 0 23.1 0 35 0 C35 1.32 35 2.64 35 4 C23.45 4 11.9 4 0 4 C0 2.68 0 1.36 0 0 Z " fill="#000000" transform="translate(84,94)"/>
<path d="M0 0 C7.26 0 14.52 0 22 0 C22 1.98 22 3.96 22 6 C14.74 6 7.48 6 0 6 C0 4.02 0 2.04 0 0 Z " fill="#EFBC46" transform="translate(69,80)"/>
<path d="M0 0 C10.56 0 21.12 0 32 0 C32 1.32 32 2.64 32 4 C21.44 4 10.88 4 0 4 C0 2.68 0 1.36 0 0 Z " fill="#000000" transform="translate(44,101)"/>
<path d="M0 0 C10.56 0 21.12 0 32 0 C32 1.32 32 2.64 32 4 C21.44 4 10.88 4 0 4 C0 2.68 0 1.36 0 0 Z " fill="#000000" transform="translate(44,94)"/>
<path d="M0 0 C1.98 0 3.96 0 6 0 C6 2.31 6 4.62 6 7 C4.35 7 2.7 7 1 7 C1 7.66 1 8.32 1 9 C2.65 9 4.3 9 6 9 C5.125 12.875 5.125 12.875 4 14 C4.66 14.66 5.32 15.32 6 16 C5.34 16.33 4.68 16.66 4 17 C4.66 17.33 5.32 17.66 6 18 C6 18.66 6 19.32 6 20 C5.34 20.33 4.68 20.66 4 21 C4.66 21.66 5.32 22.32 6 23 C5.34 23.66 4.68 24.32 4 25 C4.66 25.66 5.32 26.32 6 27 C4.02 27 2.04 27 0 27 C0 26.34 0 25.68 0 25 C0.66 24.67 1.32 24.34 2 24 C1.34 23.67 0.68 23.34 0 23 C0 22.01 0 21.02 0 20 C0.66 20 1.32 20 2 20 C2 19.34 2 18.68 2 18 C1.34 18 0.68 18 0 18 C0 16.68 0 15.36 0 14 C0.66 13.67 1.32 13.34 2 13 C1.34 12.67 0.68 12.34 0 12 C-0.125 9.125 -0.125 9.125 0 6 C0.66 5.34 1.32 4.68 2 4 C2 3.01 2 2.02 2 1 C1.34 0.67 0.68 0.34 0 0 Z " fill="#8C712C" transform="translate(30,68)"/>
<path d="M0 0 C0.95003906 0.00902344 1.90007813 0.01804687 2.87890625 0.02734375 C3.72324219 0.03894531 4.56757812 0.05054687 5.4375 0.0625 C6.4275 0.0625 7.4175 0.0625 8.4375 0.0625 C10.77083333 0.0625 13.10416667 0.0625 15.4375 0.0625 C15.4375 0.7225 15.4375 1.3825 15.4375 2.0625 C14.7775 2.0625 14.1175 2.0625 13.4375 2.0625 C13.1075 3.3825 12.7775 4.7025 12.4375 6.0625 C12.4375 4.7425 12.4375 3.4225 12.4375 2.0625 C11.7775 2.0625 11.1175 2.0625 10.4375 2.0625 C10.1075 3.3825 9.7775 4.7025 9.4375 6.0625 C8.86 5.876875 8.2825 5.69125 7.6875 5.5 C5.20605951 5.01749768 3.82761444 5.34546567 1.4375 6.0625 C0.7775 6.0625 0.1175 6.0625 -0.5625 6.0625 C-0.5625 4.7425 -0.5625 3.4225 -0.5625 2.0625 C-1.2225 2.0625 -1.8825 2.0625 -2.5625 2.0625 C-2.8925 3.3825 -3.2225 4.7025 -3.5625 6.0625 C-3.5625 4.7425 -3.5625 3.4225 -3.5625 2.0625 C-4.2225 2.0625 -4.8825 2.0625 -5.5625 2.0625 C-5.8925 3.3825 -6.2225 4.7025 -6.5625 6.0625 C-7.5525 5.7325 -8.5425 5.4025 -9.5625 5.0625 C-9.5625 3.7425 -9.5625 2.4225 -9.5625 1.0625 C-6.30825665 0.08545767 -3.38938611 -0.04150269 0 0 Z " fill="#8D712C" transform="translate(47.5625,120.9375)"/>
<path d="M0 0 C0.99 0 1.98 0 3 0 C2.67 1.32 2.34 2.64 2 4 C2.99 4.33 3.98 4.66 5 5 C5.33 5.66 5.66 6.32 6 7 C6.99 7 7.98 7 9 7 C9.33 9.31 9.66 11.62 10 14 C8.02 14 6.04 14 4 14 C4 12.35 4 10.7 4 9 C1.36 8.67 -1.28 8.34 -4 8 C-4 7.34 -4 6.68 -4 6 C-5.98 6 -7.96 6 -10 6 C-10 7.65 -10 9.3 -10 11 C-10.33 11 -10.66 11 -11 11 C-11 9.02 -11 7.04 -11 5 C-8.36 5 -5.72 5 -3 5 C-2.67 4.01 -2.34 3.02 -2 2 C-1.34 2 -0.68 2 0 2 C0 1.34 0 0.68 0 0 Z " fill="#A28635" transform="translate(130,88)"/>
<path d="M0 0 C1.65 0 3.3 0 5 0 C5.33 0.66 5.66 1.32 6 2 C6.33 1.34 6.66 0.68 7 0 C7.66 0 8.32 0 9 0 C9.33 0.66 9.66 1.32 10 2 C10.33 1.34 10.66 0.68 11 0 C13.97 0 16.94 0 20 0 C20.33 1.32 20.66 2.64 21 4 C20 5 20 5 17.0625 5.0625 C15.5465625 5.0315625 15.5465625 5.0315625 14 5 C13.34 5 12.68 5 12 5 C8 5 4 5 0 5 C0 3.35 0 1.7 0 0 Z " fill="#665321" transform="translate(111,122)"/>
<path d="M0 0 C3.06735773 0.3694263 6.05409163 0.32211528 9.140625 0.2578125 C9.140625 1.5778125 9.140625 2.8978125 9.140625 4.2578125 C9.800625 4.5878125 10.460625 4.9178125 11.140625 5.2578125 C4.47395833 5.2578125 -2.19270833 5.2578125 -8.859375 5.2578125 C-8.859375 3.6078125 -8.859375 1.9578125 -8.859375 0.2578125 C-5.56462322 -0.84043809 -3.38320002 -0.48868445 0 0 Z " fill="#8A6F2B" transform="translate(83.859375,121.7421875)"/>
<path d="M0 0 C5.28 0 10.56 0 16 0 C16 1.65 16 3.3 16 5 C10.72 5 5.44 5 0 5 C0 3.35 0 1.7 0 0 Z " fill="#0C0904" transform="translate(92,87)"/>
<path d="M0 0 C5.28 0 10.56 0 16 0 C16 1.65 16 3.3 16 5 C10.72 5 5.44 5 0 5 C0 3.35 0 1.7 0 0 Z " fill="#0B0903" transform="translate(52,87)"/>
<path d="M0 0 C5.28 0 10.56 0 16 0 C16 1.65 16 3.3 16 5 C10.72 5 5.44 5 0 5 C0 3.35 0 1.7 0 0 Z " fill="#0A0703" transform="translate(52,80)"/>
<path d="M0 0 C5.28 0 10.56 0 16 0 C16 1.65 16 3.3 16 5 C10.72 5 5.44 5 0 5 C0 3.35 0 1.7 0 0 Z " fill="#080602" transform="translate(52,73)"/>
<path d="M0 0 C5.28 0 10.56 0 16 0 C16 1.65 16 3.3 16 5 C10.72 5 5.44 5 0 5 C0 3.35 0 1.7 0 0 Z " fill="#060502" transform="translate(92,66)"/>
<path d="M0 0 C5.28 0 10.56 0 16 0 C16 1.65 16 3.3 16 5 C10.72 5 5.44 5 0 5 C0 3.35 0 1.7 0 0 Z " fill="#060502" transform="translate(52,66)"/>
<path d="M0 0 C2.64 0 5.28 0 8 0 C8 1.65 8 3.3 8 5 C4.11538953 6.29487016 0.44116044 6.1232604 -3.60546875 6.09765625 C-4.44467361 6.0962413 -5.28387848 6.09482635 -6.14851379 6.09336853 C-8.82821216 6.08777215 -11.5078269 6.07522035 -14.1875 6.0625 C-16.00455608 6.05748453 -17.82161348 6.05292171 -19.63867188 6.04882812 C-24.09248013 6.03780391 -28.54622589 6.02054178 -33 6 C-33 5.67 -33 5.34 -33 5 C-22.11 5 -11.22 5 0 5 C0 3.35 0 1.7 0 0 Z " fill="#E4B344" transform="translate(124,80)"/>
<path d="M0 0 C3.125 0.375 3.125 0.375 6 1 C6 1.66 6 2.32 6 3 C6.99 3.33 7.98 3.66 9 4 C9 7 9 10 9 13 C9.020625 13.845625 9.04125 14.69125 9.0625 15.5625 C9 18 9 18 8 19 C6.33382885 19.04063832 4.66611905 19.042721 3 19 C4.32 18.01 5.64 17.02 7 16 C6.67 14.35 6.34 12.7 6 11 C4.35 11.33 2.7 11.66 1 12 C1.33 11.01 1.66 10.02 2 9 C3.65 9 5.3 9 7 9 C5.88145414 5.27385847 5.88145414 5.27385847 3 3 C3.33 3.99 3.66 4.98 4 6 C3.34 6 2.68 6 2 6 C1.67 5.34 1.34 4.68 1 4 C0.01 4.495 0.01 4.495 -1 5 C-1.33 4.01 -1.66 3.02 -2 2 C-1.34 1.34 -0.68 0.68 0 0 Z " fill="#A78835" transform="translate(140,83)"/>
<path d="M0 0 C4.29 0 8.58 0 13 0 C13 1.65 13 3.3 13 5 C9.04 5 5.08 5 1 5 C0.67 3.35 0.34 1.7 0 0 Z " fill="#060502" transform="translate(135,66)"/>
<path d="M0 0 C0 0.66 0 1.32 0 2 C0.61875 1.79375 1.2375 1.5875 1.875 1.375 C2.57625 1.25125 3.2775 1.1275 4 1 C4.66 1.66 5.32 2.32 6 3 C7.98821313 3.39764263 9.98944339 3.73775349 12 4 C12 4.33 12 4.66 12 5 C5.73 5 -0.54 5 -7 5 C-7.66 3.68 -8.32 2.36 -9 1 C-6.04335481 -0.4783226 -3.25770263 -0.06032783 0 0 Z " fill="#C49D3C" transform="translate(134,100)"/>
<path d="M0 0 C-0.33 1.32 -0.66 2.64 -1 4 C0.32 3.67 1.64 3.34 3 3 C3 3.66 3 4.32 3 5 C4.32 5.33 5.64 5.66 7 6 C7 6.66 7 7.32 7 8 C8.32 7.67 9.64 7.34 11 7 C10.67 8.65 10.34 10.3 10 12 C7.69 11.67 5.38 11.34 3 11 C3 10.01 3 9.02 3 8 C1.68 8 0.36 8 -1 8 C-1.66666667 6.66666667 -2.33333333 5.33333333 -3 4 C-3.66 3.67 -4.32 3.34 -5 3 C-2.25 0 -2.25 0 0 0 Z " fill="#90762E" transform="translate(39,105)"/>
<path d="M0 0 C1.98 0.33 3.96 0.66 6 1 C6.495 2.485 6.495 2.485 7 4 C5.68 4 4.36 4 3 4 C2.67 4.66 2.34 5.32 2 6 C-9.22 6 -20.44 6 -32 6 C-32 5.67 -32 5.34 -32 5 C-21.44 5 -10.88 5 0 5 C0 3.35 0 1.7 0 0 Z " fill="#DDB043" transform="translate(124,73)"/>
<path d="M0 0 C4.92127034 -0.16682272 8.50343896 -0.24828052 13 2 C13 2.66 13 3.32 13 4 C11.02 4 9.04 4 7 4 C6.67 5.65 6.34 7.3 6 9 C5.01 9 4.02 9 3 9 C1.76078698 6.02588876 0.69941596 3.14737182 0 0 Z " fill="#EAB846" transform="translate(133,80)"/>
<path d="M0 0 C1.37478516 0.01740234 1.37478516 0.01740234 2.77734375 0.03515625 C3.69644531 0.04417969 4.61554688 0.05320312 5.5625 0.0625 C6.27277344 0.07410156 6.98304687 0.08570312 7.71484375 0.09765625 C7.71484375 1.74765625 7.71484375 3.39765625 7.71484375 5.09765625 C7.05484375 4.76765625 6.39484375 4.43765625 5.71484375 4.09765625 C5.38484375 4.75765625 5.05484375 5.41765625 4.71484375 6.09765625 C2.40484375 6.09765625 0.09484375 6.09765625 -2.28515625 6.09765625 C-2.66734392 4.44150968 -2.99910727 2.77308601 -3.28515625 1.09765625 C-2.28515625 0.09765625 -2.28515625 0.09765625 0 0 Z " fill="#B49037" transform="translate(110.28515625,111.90234375)"/>
<path d="M0 0 C0.99 0 1.98 0 3 0 C3 0.66 3 1.32 3 2 C2.34 2 1.68 2 1 2 C1.08378906 2.61488281 1.16757812 3.22976562 1.25390625 3.86328125 C1.35574219 4.67152344 1.45757813 5.47976562 1.5625 6.3125 C1.66691406 7.11300781 1.77132813 7.91351563 1.87890625 8.73828125 C2 11 2 11 1 14 C1.66 14 2.32 14 3 14 C3.33 15.32 3.66 16.64 4 18 C3.34 18.33 2.68 18.66 2 19 C1.34227572 22.02934491 1.34227572 22.02934491 1 25 C1.99 25.33 2.98 25.66 4 26 C3.01 26.33 2.02 26.66 1 27 C0.67 27.99 0.34 28.98 0 30 C0 20.1 0 10.2 0 0 Z " fill="#F4C048" transform="translate(29,55)"/>
<path d="M0 0 C1.98 0 3.96 0 6 0 C6 2.31 6 4.62 6 7 C4.35 7 2.7 7 1 7 C1 7.66 1 8.32 1 9 C2.65 9 4.3 9 6 9 C6 9.66 6 10.32 6 11 C4.02 11 2.04 11 0 11 C-0.125 8.625 -0.125 8.625 0 6 C0.66 5.34 1.32 4.68 2 4 C2 3.01 2 2.02 2 1 C1.34 0.67 0.68 0.34 0 0 Z " fill="#AB8835" transform="translate(30,68)"/>
<path d="M0 0 C1.98 0 3.96 0 6 0 C6.33 1.65 6.66 3.3 7 5 C2.9472484 5.98248524 -0.83861737 6.08159574 -5 6 C-4.67 5.34 -4.34 4.68 -4 4 C-3.34 4.33 -2.68 4.66 -2 5 C-2 4.34 -2 3.68 -2 3 C-1.34 3 -0.68 3 0 3 C0 2.01 0 1.02 0 0 Z " fill="#A78734" transform="translate(61,112)"/>
<path d="M0 0 C4.29 0 8.58 0 13 0 C13.33 0.99 13.66 1.98 14 3 C12.68 3.33 11.36 3.66 10 4 C10 3.67 10 3.34 10 3 C7.03 2.505 7.03 2.505 4 2 C4 3.32 4 4.64 4 6 C3.01 6 2.02 6 1 6 C0.67 4.02 0.34 2.04 0 0 Z " fill="#C9A13D" transform="translate(132,73)"/>
<path d="M0 0 C2.40072955 2.88087546 4.47291037 5.56404834 6 9 C6.33 8.01 6.66 7.02 7 6 C7.99 6.33 8.98 6.66 10 7 C9.375 8.875 9.375 8.875 8 11 C4.875 12.25 4.875 12.25 2 13 C2 10 2 10 3 7 C2.34 7 1.68 7 1 7 C0.67 4.69 0.34 2.38 0 0 Z " fill="#8F752E" transform="translate(132,80)"/>
<path d="M0 0 C1.98 0 3.96 0 6 0 C6 1.32 6 2.64 6 4 C5.01 4.495 5.01 4.495 4 5 C4.99 6.485 4.99 6.485 6 8 C4.02 8 2.04 8 0 8 C0 5.36 0 2.72 0 0 Z " fill="#9E8132" transform="translate(30,59)"/>
<path d="M0 0 C3.3 0 6.6 0 10 0 C9.01 0.33 8.02 0.66 7 1 C7 1.99 7 2.98 7 4 C7.33 3.34 7.66 2.68 8 2 C8.66 2 9.32 2 10 2 C10 2.99 10 3.98 10 5 C6.7 5 3.4 5 0 5 C0 3.35 0 1.7 0 0 Z " fill="#816929" transform="translate(96,122)"/>
<path d="M0 0 C3.66666667 0 7.33333333 0 11 0 C10 2 9 4 8 6 C6.68 6 5.36 6 4 6 C4 4.35 4 2.7 4 1 C3.34 1 2.68 1 2 1 C2 2.65 2 4.3 2 6 C1.67 6 1.34 6 1 6 C0.67 4.02 0.34 2.04 0 0 Z " fill="#9F7F31" transform="translate(131,112)"/>
<path d="M0 0 C2.97 0 5.94 0 9 0 C8.67 1.32 8.34 2.64 8 4 C8.33 4.66 8.66 5.32 9 6 C7.68 6 6.36 6 5 6 C5 4.68 5 3.36 5 2 C4.34 2 3.68 2 3 2 C2.67 3.32 2.34 4.64 2 6 C2 4.68 2 3.36 2 2 C1.34 2 0.68 2 0 2 C0 1.34 0 0.68 0 0 Z " fill="#8A6F2B" transform="translate(65,121)"/>
<path d="M0 0 C1.4540625 0.0309375 1.4540625 0.0309375 2.9375 0.0625 C3.5 2 3.5 2 3.9375 4.0625 C2.9375 5.0625 2.9375 5.0625 0.375 5.125 C-0.8315625 5.0940625 -0.8315625 5.0940625 -2.0625 5.0625 C-2.0625 4.0725 -2.0625 3.0825 -2.0625 2.0625 C-2.7225 1.7325 -3.3825 1.4025 -4.0625 1.0625 C-3.0625 0.0625 -3.0625 0.0625 0 0 Z " fill="#92752D" transform="translate(128.0625,121.9375)"/>
<path d="M0 0 C0.78375 0.185625 1.5675 0.37125 2.375 0.5625 C4.97089775 1.25962266 4.97089775 1.25962266 7 0 C7 1.65 7 3.3 7 5 C4.69 5 2.38 5 0 5 C0 3.35 0 1.7 0 0 Z " fill="#7E6527" transform="translate(30,122)"/>
<path d="M0 0 C1.98 0 3.96 0 6 0 C6 0.99 6 1.98 6 3 C5.34 3 4.68 3 4 3 C4 3.99 4 4.98 4 6 C2.35 5.67 0.7 5.34 -1 5 C-0.67 3.35 -0.34 1.7 0 0 Z " fill="#A08132" transform="translate(100,112)"/>
<path d="M0 0 C1.98 0 3.96 0 6 0 C6 1.65 6 3.3 6 5 C4.02 5 2.04 5 0 5 C0 3.35 0 1.7 0 0 Z " fill="#F6C048" transform="translate(77,60)"/>
<path d="M0 0 C1.98 0 3.96 0 6 0 C6 1.65 6 3.3 6 5 C4.02 5 2.04 5 0 5 C0 3.35 0 1.7 0 0 Z " fill="#F6C048" transform="translate(77,53)"/>
<path d="M0 0 C-0.66 0 -1.32 0 -2 0 C-1.67 0.99 -1.34 1.98 -1 3 C-0.34 3.33 0.32 3.66 1 4 C-1.76264289 4.59732819 -4.16032769 5 -7 5 C-7 3.35 -7 1.7 -7 0 C-3.86650268 -1.04449911 -3.01031744 -0.93423645 0 0 Z " fill="#9A7C30" transform="translate(82,122)"/>
<path d="M0 0 C1.65 0 3.3 0 5 0 C5 1.65 5 3.3 5 5 C3.35 5.33 1.7 5.66 0 6 C-1.125 2.25 -1.125 2.25 0 0 Z " fill="#CCA33F" transform="translate(127,80)"/>
<path d="M0 0 C2.64 0.33 5.28 0.66 8 1 C8 1.99 8 2.98 8 4 C8.020625 4.86625 8.04125 5.7325 8.0625 6.625 C8 9 8 9 7 10 C5.33382885 10.04063832 3.66611905 10.042721 2 10 C3.32 9.01 4.64 8.02 6 7 C5.67 5.35 5.34 3.7 5 2 C3.35 2.33 1.7 2.66 0 3 C0 2.01 0 1.02 0 0 Z " fill="#947B31" transform="translate(141,92)"/>
<path d="M0 0 C1.65 0 3.3 0 5 0 C5.33 1.65 5.66 3.3 6 5 C4.02 5 2.04 5 0 5 C0 3.35 0 1.7 0 0 Z " fill="#886D2A" transform="translate(111,122)"/>
<path d="M0 0 C2.64 0.33 5.28 0.66 8 1 C8 1.99 8 2.98 8 4 C5.36 4 2.72 4 0 4 C0 2.68 0 1.36 0 0 Z " fill="#F5C048" transform="translate(126,96)"/>
<path d="M0 0 C2.475 0.495 2.475 0.495 5 1 C4.67 2.65 4.34 4.3 4 6 C2.68 6 1.36 6 0 6 C0 4.02 0 2.04 0 0 Z " fill="#A48533" transform="translate(94,112)"/>
<path d="M0 0 C0.66 0 1.32 0 2 0 C2.33 1.32 2.66 2.64 3 4 C1.35 4 -0.3 4 -2 4 C-2 3.34 -2 2.68 -2 2 C-3.98 2 -5.96 2 -8 2 C-8 3.65 -8 5.3 -8 7 C-8.33 7 -8.66 7 -9 7 C-9 5.02 -9 3.04 -9 1 C-7.700625 1.020625 -6.40125 1.04125 -5.0625 1.0625 C-3.70834367 1.08399454 -2.35243917 1.07148199 -1 1 C-0.67 0.67 -0.34 0.34 0 0 Z " fill="#856D2B" transform="translate(128,92)"/>
<path d="M0 0 C4.92127034 -0.16682272 8.50343896 -0.24828052 13 2 C13 2.66 13 3.32 13 4 C8.51474352 3.343621 4.33085971 2.29925791 0 1 C0 0.67 0 0.34 0 0 Z " fill="#D1A63F" transform="translate(133,80)"/>
<path d="M0 0 C-0.33 0.99 -0.66 1.98 -1 3 C-3.31 3 -5.62 3 -8 3 C-8 2.01 -8 1.02 -8 0 C-4.71303767 -0.79953138 -3.28976808 -1.09658936 0 0 Z " fill="#F6C148" transform="translate(148,97)"/>
<path d="M0 0 C2.31 0 4.62 0 7 0 C7 1.32 7 2.64 7 4 C7.66 4.33 8.32 4.66 9 5 C6.03 4.505 6.03 4.505 3 4 C3 3.01 3 2.02 3 1 C2.01 1.33 1.02 1.66 0 2 C0 1.34 0 0.68 0 0 Z " fill="#7A6327" transform="translate(86,122)"/>
<path d="M0 0 C0.66 0 1.32 0 2 0 C2 0.66 2 1.32 2 2 C2.66 2 3.32 2 4 2 C4 1.34 4 0.68 4 0 C4.66 0 5.32 0 6 0 C6 1.65 6 3.3 6 5 C4.02 5 2.04 5 0 5 C0 3.35 0 1.7 0 0 Z " fill="#8F752E" transform="translate(119,112)"/>
<path d="M0 0 C0.99 0.33 1.98 0.66 3 1 C3.33 2.65 3.66 4.3 4 6 C2.68 5.34 1.36 4.68 0 4 C0 4.66 0 5.32 0 6 C-0.99 6 -1.98 6 -3 6 C-2 4 -1 2 0 0 Z " fill="#967A30" transform="translate(144,112)"/>
<path d="M0 0 C1.8871875 0.061875 1.8871875 0.061875 3.8125 0.125 C3.4825 1.115 3.1525 2.105 2.8125 3.125 C-0.4875 2.795 -3.7875 2.465 -7.1875 2.125 C-4.09861478 0.06574319 -3.47814073 -0.1140374 0 0 Z " fill="#E3B344" transform="translate(144.1875,101.875)"/>
<path d="M0 0 C2.31 0 4.62 0 7 0 C7.33 0.99 7.66 1.98 8 3 C5.39417629 3.93065133 4.35801776 4.14917407 1.75 3.0625 C1.1725 2.711875 0.595 2.36125 0 2 C0 1.34 0 0.68 0 0 Z " fill="#D5AA40" transform="translate(138,73)"/>
<path d="M0 0 C0.33 0.99 0.66 1.98 1 3 C1.66 3.33 2.32 3.66 3 4 C2.67 4.66 2.34 5.32 2 6 C-0.31 6 -2.62 6 -5 6 C-4.67 4.68 -4.34 3.36 -4 2 C-4 2.66 -4 3.32 -4 4 C-2.68 4 -1.36 4 0 4 C0 2.68 0 1.36 0 0 Z " fill="#9A8033" transform="translate(131,73)"/>
<path d="M0 0 C1.65 0 3.3 0 5 0 C4.67 1.32 4.34 2.64 4 4 C2.68 4 1.36 4 0 4 C0 2.68 0 1.36 0 0 Z " fill="#F8C249" transform="translate(120,95)"/>
<path d="M0 0 C1.98 0 3.96 0 6 0 C6 1.32 6 2.64 6 4 C4.68 4 3.36 4 2 4 C2 3.01 2 2.02 2 1 C1.34 0.67 0.68 0.34 0 0 Z " fill="#96792F" transform="translate(30,68)"/>
<path d="M0 0 C0.33 0 0.66 0 1 0 C1 1.65 1 3.3 1 5 C0.34 4.67 -0.32 4.34 -1 4 C-1.33 4.66 -1.66 5.32 -2 6 C-2.66 6 -3.32 6 -4 6 C-4.33 5.01 -4.66 4.02 -5 3 C-3.35 2.67 -1.7 2.34 0 2 C0 1.34 0 0.68 0 0 Z " fill="#94782F" transform="translate(117,112)"/>
<path d="M0 0 C0.66 0 1.32 0 2 0 C2.33 1.65 2.66 3.3 3 5 C1.35 5.33 -0.3 5.66 -2 6 C-1.34 4.02 -0.68 2.04 0 0 Z " fill="#94782F" transform="translate(52,112)"/>
<path d="M0 0 C0.99 0.33 1.98 0.66 3 1 C3.6875 3.0625 3.6875 3.0625 4 5 C3.34 5 2.68 5 2 5 C1.67 5.66 1.34 6.32 1 7 C0.34 5.02 -0.32 3.04 -1 1 C-0.67 0.67 -0.34 0.34 0 0 Z " fill="#9A7D31" transform="translate(41,109)"/>
<path d="M0 0 C1.32 0 2.64 0 4 0 C4 0.99 4 1.98 4 3 C2.125 3.625 2.125 3.625 0 4 C-0.66 3.34 -1.32 2.68 -2 2 C-1.34 1.34 -0.68 0.68 0 0 Z " fill="#E8B745" transform="translate(136,92)"/>
</svg>
