<?xml version="1.0" encoding="UTF-8"?>
<svg version="1.1" viewBox="0 0 4096 1000" width="1280" height="1280" xmlns="http://www.w3.org/2000/svg">
<path transform="translate(2273,175)" d="m0 0h574v48h-574z" fill="#fff"/>
<path transform="translate(2273,264)" d="m0 0h574v47h-574z" fill="#fff"/>
<path transform="translate(1030,433)" d="m0 0h305l9 17 2 8h2l1-4 6-12 3-8 1-1h303v41h-167l-1-20-7 16-1 4h-284l-8-18-1-4-1 22h-162z" fill="#fff"/>
<path transform="translate(359,509)" d="m0 0h444v43h-444z" fill="#fff"/>
<path transform="translate(1804,175)" d="m0 0h390v48h-390z" fill="#fff"/>
<path transform="translate(1804,686)" d="m0 0h390v47h-390z" fill="#fff"/>
<path transform="translate(1804,264)" d="m0 0h390v47h-390z" fill="#fff"/>
<path transform="translate(1805,775)" d="m0 0h389v47h-390v-46z" fill="#fff"/>
<path transform="translate(359,433)" d="m0 0h444v41h-444z" fill="#fff"/>
<path transform="translate(2273,775)" d="m0 0h348v47h-348z" fill="#fff"/>
<path transform="translate(2273,686)" d="m0 0h348v47h-348z" fill="#fff"/>
<path transform="translate(1436,265)" d="m0 0h314v47h-335l4-11 8-17z" fill="#fff"/>
<path transform="translate(941,264)" d="m0 0h312l9 17 4 10 7 13 2 7h-334z" fill="#fff"/>
<path transform="translate(1477,177)" d="m0 0h273v47h-293v-6l8-16 8-19z" fill="#fff"/>
<path transform="translate(625,175)" d="m0 0h274l1 1v46l-1 1h-274z" fill="#fff"/>
<path transform="translate(2360,509)" d="m0 0h305v43h-305z" fill="#fff"/>
<path transform="translate(941,177)" d="m0 0h271l8 16 8 18 5 9v3h-292z" fill="#fff"/>
<path transform="translate(625,686)" d="m0 0h274l1 1v46h-275z" fill="#fff"/>
<path transform="translate(625,264)" d="m0 0h274l1 1v46h-275z" fill="#fff"/>
<path transform="translate(625,775)" d="m0 0h274l1 1v45l-1 1h-274z" fill="#fff"/>
<path transform="translate(271,175)" d="m0 0h263l1 1v47h-264z" fill="#fff"/>
<path transform="translate(2360,433)" d="m0 0h305v41h-305z" fill="#fff"/>
<path transform="translate(271,686)" d="m0 0h263l1 1v46h-264z" fill="#fff"/>
<path transform="translate(271,264)" d="m0 0h263l1 1v46h-264z" fill="#fff"/>
<path transform="translate(271,775)" d="m0 0h263l1 1v45l-1 1h-263z" fill="#fff"/>
<path transform="translate(1495,687)" d="m0 0h255v47h-255z" fill="#fff"/>
<path transform="translate(941,686)" d="m0 0h250l1 1v46h-251z" fill="#fff"/>
<path transform="translate(941,775)" d="m0 0h250l1 1v45l-1 1h-250z" fill="#fff"/>
<path transform="translate(1495,776)" d="m0 0h255v46h-255z" fill="#fff"/>
<path transform="translate(1396,352)" d="m0 0h265l1 1v41h-285l3-9 6-12 9-19z" fill="#fff"/>
<path transform="translate(1030,352)" d="m0 0h266l16 32 3 9h-285z" fill="#fff"/>
<path transform="translate(1217,509)" d="m0 0h254l-7 21-6 13-3 9h-221l-7-15-5-14-4-8z" fill="#fff"/>
<path transform="translate(1910,591)" d="m0 0h178v53h-178z" fill="#fff"/>
<path transform="translate(625,591)" d="m0 0h178v53h-178z" fill="#fff"/>
<path transform="translate(359,591)" d="m0 0h176v53h-176z" fill="#fff"/>
<path transform="translate(2360,591)" d="m0 0h175v53h-175z" fill="#fff"/>
<path transform="translate(2858,740)" d="m0 0h319v28h-319z" fill="#fff"/>
<path transform="translate(1251,591)" d="m0 0h187l-1 6-5 14-6 13-5 13-3 6-1 1h-145l-3-5-6-16-7-15-5-14z" fill="#fff"/>
<path transform="translate(1495,592)" d="m0 0h167v53h-167z" fill="#fff"/>
<path transform="translate(2859,495)" d="m0 0h312v28h-313v-27z" fill="#fff"/>
<path transform="translate(2859,444)" d="m0 0h312v27l-1 1h-311l-1-1v-26z" fill="#fff"/>
<path transform="translate(2858,792)" d="m0 0h319v27h-319z" fill="#fff"/>
<path transform="translate(1030,591)" d="m0 0h162v53h-162z" fill="#fff"/>
<path transform="translate(1910,509)" d="m0 0h178v43h-178z" fill="#fff"/>
<path transform="translate(3533,740)" d="m0 0h269l-1 9-7 17-2 2h-259z" fill="#fff"/>
<path transform="translate(3217,740)" d="m0 0h269l-1 7-8 20-1 1h-259z" fill="#fff"/>
<path transform="translate(1910,433)" d="m0 0h178v41h-178z" fill="#fff"/>
<path transform="translate(1910,352)" d="m0 0h178v41h-178z" fill="#fff"/>
<path transform="translate(625,352)" d="m0 0h178v41h-178z" fill="#fff"/>
<path transform="translate(359,352)" d="m0 0h176v41h-176z" fill="#fff"/>
<path transform="translate(1495,510)" d="m0 0h167v43h-167z" fill="#fff"/>
<path transform="translate(2360,352)" d="m0 0h175v41h-175z" fill="#fff"/>
<path transform="translate(3545,495)" d="m0 0h249l1 1v27h-260l3-12 5-13z" fill="#fff"/>
<path transform="translate(3229,495)" d="m0 0h248l1 1v27h-259l1-9 7-17z" fill="#fff"/>
<path transform="translate(1030,509)" d="m0 0h162v43h-162z" fill="#fff"/>
<path transform="translate(2698,352)" d="m0 0h149v41h-149z" fill="#fff"/>
<path transform="translate(3612,444)" d="m0 0h182l1 1v26l-1 1h-232l2-5 12-10 16-8 14-4z" fill="#fff"/>
<path transform="translate(3533,792)" d="m0 0h241l-2 4-8 7-11 7-12 5-16 4h-192z" fill="#fff"/>
<path transform="translate(3295,444)" d="m0 0h183v27l-1 1h-231v-3l7-7 10-7 15-7z" fill="#fff"/>
<path transform="translate(3217,792)" d="m0 0h241l-6 7-10 8-12 6-16 5-5 1h-192z" fill="#fff"/>
<path transform="translate(3561,637)" d="m0 0h231l8 17 2 9h-206l-12-5-14-10-9-8z" fill="#fff"/>
<path transform="translate(3244,637)" d="m0 0h231l8 16 2 6v4h-205l-11-4-12-8-10-9-3-3z" fill="#fff"/>
<path transform="translate(3537,593)" d="m0 0h201l11 4 14 8 10 8 3 3v2h-229l-5-8-5-15z" fill="#fff"/>
<path transform="translate(3220,593)" d="m0 0h201l12 4 16 10 10 8v3h-229l-3-5-7-18z" fill="#fff"/>
<path transform="translate(2909,637)" d="m0 0h178v26h-178z" fill="#fff"/>
<path transform="translate(2909,593)" d="m0 0h178v24l-1 1h-176l-1-1z" fill="#fff"/>
<path transform="translate(1290,686)" d="m0 0h110l-1 7-3 6-4 13-6 13-2 7-1 1h-75l-12-28-4-12-2-4z" fill="#fff"/>
<path transform="translate(3698,685)" d="m0 0h109l1 4v26l-1 1h-109l-1-1v-29z" fill="#fff"/>
<path transform="translate(3381,685)" d="m0 0h109l1 3v28h-110z" fill="#fff"/>
<path transform="translate(2909,685)" d="m0 0h102v31h-102z" fill="#fff"/>
<path transform="translate(3533,685)" d="m0 0h93v31h-93z" fill="#fff"/>
<path transform="translate(3217,685)" d="m0 0h92v31h-92z" fill="#fff"/>
<path transform="translate(3085,685)" d="m0 0h92v31h-92z" fill="#fff"/>
<path transform="translate(3216,546)" d="m0 0h108l1 1v23l-1 1h-107l-2-5v-18z" fill="#fff"/>
<path transform="translate(3533,546)" d="m0 0h108v25h-107l-2-2v-22z" fill="#fff"/>
<path transform="translate(2909,546)" d="m0 0h101l1 1v23l-1 1h-100l-1-1z" fill="#fff"/>
<path transform="translate(3085,546)" d="m0 0h86v24l-1 1h-84l-1-1z" fill="#fff"/>
<path transform="translate(3714,546)" d="m0 0h80l1 1v23l-1 1h-80l-1-1v-23z" fill="#fff"/>
<path transform="translate(3397,546)" d="m0 0h81v24l-1 1h-79l-1-1z" fill="#fff"/>
<path transform="translate(1327,775)" d="m0 0h38l-1 8-8 18-4 11-5 10-3-3-9-21-7-16-2-6z" fill="#fff"/>
</svg>
